<svg xmlns="http://www.w3.org/2000/svg" xmlns:xlink="http://www.w3.org/1999/xlink" width="500" zoomAndPan="magnify" viewBox="0 0 375 374.999991" height="500" preserveAspectRatio="xMidYMid meet" version="1.0"><defs><g/></defs><g fill="#ffffff" fill-opacity="1"><g transform="translate(29.017594, 281.412002)"><g><path d="M 3.859375 -9.8125 L 0.0625 -9.8125 L 0.0625 -10.796875 L 8.796875 -10.796875 L 8.796875 -9.8125 L 5 -9.8125 L 5 0 L 3.859375 0 Z M 3.859375 -9.8125 "/></g></g></g><g fill="#ffffff" fill-opacity="1"><g transform="translate(44.656147, 281.412002)"><g><path d="M 9.390625 -0.984375 L 9.390625 0 L 1.765625 0 L 1.765625 -10.796875 L 9.15625 -10.796875 L 9.15625 -9.8125 L 2.90625 -9.8125 L 2.90625 -5.96875 L 8.484375 -5.96875 L 8.484375 -5 L 2.90625 -5 L 2.90625 -0.984375 Z M 9.390625 -0.984375 "/></g></g></g><g fill="#ffffff" fill-opacity="1"><g transform="translate(61.759863, 281.412002)"><g><path d="M 6.453125 0.09375 C 5.378906 0.09375 4.410156 -0.140625 3.546875 -0.609375 C 2.691406 -1.085938 2.019531 -1.742188 1.53125 -2.578125 C 1.039062 -3.421875 0.796875 -4.359375 0.796875 -5.390625 C 0.796875 -6.429688 1.039062 -7.367188 1.53125 -8.203125 C 2.019531 -9.046875 2.695312 -9.703125 3.5625 -10.171875 C 4.425781 -10.648438 5.394531 -10.890625 6.46875 -10.890625 C 7.269531 -10.890625 8.007812 -10.753906 8.6875 -10.484375 C 9.363281 -10.210938 9.9375 -9.820312 10.40625 -9.3125 L 9.6875 -8.59375 C 8.84375 -9.445312 7.78125 -9.875 6.5 -9.875 C 5.644531 -9.875 4.863281 -9.675781 4.15625 -9.28125 C 3.457031 -8.894531 2.910156 -8.359375 2.515625 -7.671875 C 2.117188 -6.992188 1.921875 -6.234375 1.921875 -5.390625 C 1.921875 -4.554688 2.117188 -3.796875 2.515625 -3.109375 C 2.910156 -2.429688 3.457031 -1.894531 4.15625 -1.5 C 4.863281 -1.113281 5.644531 -0.921875 6.5 -0.921875 C 7.789062 -0.921875 8.851562 -1.351562 9.6875 -2.21875 L 10.40625 -1.5 C 9.9375 -0.976562 9.359375 -0.582031 8.671875 -0.3125 C 7.992188 -0.0390625 7.253906 0.09375 6.453125 0.09375 Z M 6.453125 0.09375 "/></g></g></g><g fill="#ffffff" fill-opacity="1"><g transform="translate(79.634718, 281.412002)"><g><path d="M 10.78125 -10.796875 L 10.78125 0 L 9.65625 0 L 9.65625 -4.984375 L 2.90625 -4.984375 L 2.90625 0 L 1.765625 0 L 1.765625 -10.796875 L 2.90625 -10.796875 L 2.90625 -5.984375 L 9.65625 -5.984375 L 9.65625 -10.796875 Z M 10.78125 -10.796875 "/></g></g></g><g fill="#ffffff" fill-opacity="1"><g transform="translate(98.959298, 281.412002)"><g><path d="M 10.78125 -10.796875 L 10.78125 0 L 9.84375 0 L 2.90625 -8.765625 L 2.90625 0 L 1.765625 0 L 1.765625 -10.796875 L 2.703125 -10.796875 L 9.65625 -2.03125 L 9.65625 -10.796875 Z M 10.78125 -10.796875 "/></g></g></g><g fill="#ffffff" fill-opacity="1"><g transform="translate(118.283879, 281.412002)"><g><path d="M 6.484375 0.09375 C 5.410156 0.09375 4.4375 -0.144531 3.5625 -0.625 C 2.695312 -1.101562 2.019531 -1.757812 1.53125 -2.59375 C 1.039062 -3.425781 0.796875 -4.359375 0.796875 -5.390625 C 0.796875 -6.429688 1.039062 -7.367188 1.53125 -8.203125 C 2.019531 -9.035156 2.695312 -9.691406 3.5625 -10.171875 C 4.4375 -10.648438 5.410156 -10.890625 6.484375 -10.890625 C 7.546875 -10.890625 8.503906 -10.648438 9.359375 -10.171875 C 10.222656 -9.703125 10.898438 -9.046875 11.390625 -8.203125 C 11.890625 -7.367188 12.140625 -6.429688 12.140625 -5.390625 C 12.140625 -4.359375 11.890625 -3.421875 11.390625 -2.578125 C 10.898438 -1.742188 10.222656 -1.085938 9.359375 -0.609375 C 8.503906 -0.140625 7.546875 0.09375 6.484375 0.09375 Z M 6.484375 -0.921875 C 7.328125 -0.921875 8.09375 -1.113281 8.78125 -1.5 C 9.476562 -1.882812 10.019531 -2.421875 10.40625 -3.109375 C 10.800781 -3.796875 11 -4.554688 11 -5.390625 C 11 -6.234375 10.800781 -7 10.40625 -7.6875 C 10.019531 -8.375 9.476562 -8.910156 8.78125 -9.296875 C 8.09375 -9.679688 7.328125 -9.875 6.484375 -9.875 C 5.628906 -9.875 4.851562 -9.679688 4.15625 -9.296875 C 3.457031 -8.910156 2.910156 -8.375 2.515625 -7.6875 C 2.117188 -7 1.921875 -6.234375 1.921875 -5.390625 C 1.921875 -4.554688 2.117188 -3.796875 2.515625 -3.109375 C 2.910156 -2.421875 3.457031 -1.882812 4.15625 -1.5 C 4.851562 -1.113281 5.628906 -0.921875 6.484375 -0.921875 Z M 6.484375 -0.921875 "/></g></g></g><g fill="#ffffff" fill-opacity="1"><g transform="translate(138.009441, 281.412002)"><g><path d="M 1.765625 -10.796875 L 2.90625 -10.796875 L 2.90625 -0.984375 L 8.9375 -0.984375 L 8.9375 0 L 1.765625 0 Z M 1.765625 -10.796875 "/></g></g></g><g fill="#ffffff" fill-opacity="1"><g transform="translate(153.87934, 281.412002)"><g><path d="M 6.484375 0.09375 C 5.410156 0.09375 4.4375 -0.144531 3.5625 -0.625 C 2.695312 -1.101562 2.019531 -1.757812 1.53125 -2.59375 C 1.039062 -3.425781 0.796875 -4.359375 0.796875 -5.390625 C 0.796875 -6.429688 1.039062 -7.367188 1.53125 -8.203125 C 2.019531 -9.035156 2.695312 -9.691406 3.5625 -10.171875 C 4.4375 -10.648438 5.410156 -10.890625 6.484375 -10.890625 C 7.546875 -10.890625 8.503906 -10.648438 9.359375 -10.171875 C 10.222656 -9.703125 10.898438 -9.046875 11.390625 -8.203125 C 11.890625 -7.367188 12.140625 -6.429688 12.140625 -5.390625 C 12.140625 -4.359375 11.890625 -3.421875 11.390625 -2.578125 C 10.898438 -1.742188 10.222656 -1.085938 9.359375 -0.609375 C 8.503906 -0.140625 7.546875 0.09375 6.484375 0.09375 Z M 6.484375 -0.921875 C 7.328125 -0.921875 8.09375 -1.113281 8.78125 -1.5 C 9.476562 -1.882812 10.019531 -2.421875 10.40625 -3.109375 C 10.800781 -3.796875 11 -4.554688 11 -5.390625 C 11 -6.234375 10.800781 -7 10.40625 -7.6875 C 10.019531 -8.375 9.476562 -8.910156 8.78125 -9.296875 C 8.09375 -9.679688 7.328125 -9.875 6.484375 -9.875 C 5.628906 -9.875 4.851562 -9.679688 4.15625 -9.296875 C 3.457031 -8.910156 2.910156 -8.375 2.515625 -7.6875 C 2.117188 -7 1.921875 -6.234375 1.921875 -5.390625 C 1.921875 -4.554688 2.117188 -3.796875 2.515625 -3.109375 C 2.910156 -2.421875 3.457031 -1.882812 4.15625 -1.5 C 4.851562 -1.113281 5.628906 -0.921875 6.484375 -0.921875 Z M 6.484375 -0.921875 "/></g></g></g><g fill="#ffffff" fill-opacity="1"><g transform="translate(173.604903, 281.412002)"><g><path d="M 9.359375 -5.390625 L 10.453125 -5.390625 L 10.453125 -1.28125 C 9.953125 -0.832031 9.359375 -0.488281 8.671875 -0.25 C 7.984375 -0.0195312 7.257812 0.09375 6.5 0.09375 C 5.414062 0.09375 4.441406 -0.140625 3.578125 -0.609375 C 2.710938 -1.085938 2.03125 -1.742188 1.53125 -2.578125 C 1.039062 -3.421875 0.796875 -4.359375 0.796875 -5.390625 C 0.796875 -6.429688 1.039062 -7.367188 1.53125 -8.203125 C 2.03125 -9.046875 2.710938 -9.703125 3.578125 -10.171875 C 4.441406 -10.648438 5.421875 -10.890625 6.515625 -10.890625 C 7.328125 -10.890625 8.078125 -10.753906 8.765625 -10.484375 C 9.460938 -10.222656 10.046875 -9.835938 10.515625 -9.328125 L 9.8125 -8.609375 C 8.957031 -9.453125 7.867188 -9.875 6.546875 -9.875 C 5.679688 -9.875 4.894531 -9.679688 4.1875 -9.296875 C 3.476562 -8.910156 2.921875 -8.375 2.515625 -7.6875 C 2.117188 -7 1.921875 -6.234375 1.921875 -5.390625 C 1.921875 -4.554688 2.117188 -3.796875 2.515625 -3.109375 C 2.921875 -2.429688 3.472656 -1.894531 4.171875 -1.5 C 4.878906 -1.113281 5.664062 -0.921875 6.53125 -0.921875 C 7.644531 -0.921875 8.585938 -1.203125 9.359375 -1.765625 Z M 9.359375 -5.390625 "/></g></g></g><g fill="#ffffff" fill-opacity="1"><g transform="translate(192.312565, 281.412002)"><g><path d="M 5.453125 -3.734375 L 5.453125 0 L 4.328125 0 L 4.328125 -3.734375 L 0.015625 -10.796875 L 1.234375 -10.796875 L 4.9375 -4.734375 L 8.640625 -10.796875 L 9.78125 -10.796875 Z M 5.453125 -3.734375 "/></g></g></g><g fill="#ffffff" fill-opacity="1"><g transform="translate(208.891915, 281.412002)"><g/></g></g><g fill="#ffffff" fill-opacity="1"><g transform="translate(219.718598, 281.412002)"><g><path d="M 5.796875 -10.796875 C 7.171875 -10.796875 8.25 -10.46875 9.03125 -9.8125 C 9.8125 -9.15625 10.203125 -8.25 10.203125 -7.09375 C 10.203125 -5.9375 9.8125 -5.03125 9.03125 -4.375 C 8.25 -3.726562 7.171875 -3.40625 5.796875 -3.40625 L 2.90625 -3.40625 L 2.90625 0 L 1.765625 0 L 1.765625 -10.796875 Z M 5.765625 -4.40625 C 6.835938 -4.40625 7.65625 -4.640625 8.21875 -5.109375 C 8.78125 -5.578125 9.0625 -6.238281 9.0625 -7.09375 C 9.0625 -7.96875 8.78125 -8.640625 8.21875 -9.109375 C 7.65625 -9.578125 6.835938 -9.8125 5.765625 -9.8125 L 2.90625 -9.8125 L 2.90625 -4.40625 Z M 5.765625 -4.40625 "/></g></g></g><g fill="#ffffff" fill-opacity="1"><g transform="translate(237.578014, 281.412002)"><g><path d="M 10.734375 -10.796875 L 5.953125 0 L 4.828125 0 L 0.046875 -10.796875 L 1.28125 -10.796875 L 5.40625 -1.421875 L 9.578125 -10.796875 Z M 10.734375 -10.796875 "/></g></g></g><g fill="#ffffff" fill-opacity="1"><g transform="translate(255.128972, 281.412002)"><g><path d="M 3.859375 -9.8125 L 0.0625 -9.8125 L 0.0625 -10.796875 L 8.796875 -10.796875 L 8.796875 -9.8125 L 5 -9.8125 L 5 0 L 3.859375 0 Z M 3.859375 -9.8125 "/></g></g></g><g fill="#ffffff" fill-opacity="1"><g transform="translate(270.767522, 281.412002)"><g><path d="M 1.640625 0.078125 C 1.410156 0.078125 1.210938 -0.00390625 1.046875 -0.171875 C 0.890625 -0.335938 0.8125 -0.535156 0.8125 -0.765625 C 0.8125 -1.003906 0.890625 -1.203125 1.046875 -1.359375 C 1.210938 -1.523438 1.410156 -1.609375 1.640625 -1.609375 C 1.859375 -1.609375 2.050781 -1.523438 2.21875 -1.359375 C 2.382812 -1.203125 2.46875 -1.003906 2.46875 -0.765625 C 2.46875 -0.535156 2.382812 -0.335938 2.21875 -0.171875 C 2.050781 -0.00390625 1.859375 0.078125 1.640625 0.078125 Z M 1.640625 0.078125 "/></g></g></g><g fill="#ffffff" fill-opacity="1"><g transform="translate(280.823068, 281.412002)"><g/></g></g><g fill="#ffffff" fill-opacity="1"><g transform="translate(291.64975, 281.412002)"><g><path d="M 1.765625 -10.796875 L 2.90625 -10.796875 L 2.90625 -0.984375 L 8.9375 -0.984375 L 8.9375 0 L 1.765625 0 Z M 1.765625 -10.796875 "/></g></g></g><g fill="#ffffff" fill-opacity="1"><g transform="translate(307.519649, 281.412002)"><g><path d="M 3.859375 -9.8125 L 0.0625 -9.8125 L 0.0625 -10.796875 L 8.796875 -10.796875 L 8.796875 -9.8125 L 5 -9.8125 L 5 0 L 3.859375 0 Z M 3.859375 -9.8125 "/></g></g></g><g fill="#ffffff" fill-opacity="1"><g transform="translate(323.158199, 281.412002)"><g><path d="M 1.765625 -10.796875 L 6.15625 -10.796875 C 7.289062 -10.796875 8.296875 -10.566406 9.171875 -10.109375 C 10.046875 -9.648438 10.722656 -9.007812 11.203125 -8.1875 C 11.691406 -7.375 11.9375 -6.441406 11.9375 -5.390625 C 11.9375 -4.347656 11.691406 -3.414062 11.203125 -2.59375 C 10.722656 -1.78125 10.046875 -1.144531 9.171875 -0.6875 C 8.296875 -0.226562 7.289062 0 6.15625 0 L 1.765625 0 Z M 6.09375 -0.984375 C 7.039062 -0.984375 7.867188 -1.171875 8.578125 -1.546875 C 9.285156 -1.921875 9.832031 -2.441406 10.21875 -3.109375 C 10.613281 -3.773438 10.8125 -4.535156 10.8125 -5.390625 C 10.8125 -6.253906 10.613281 -7.019531 10.21875 -7.6875 C 9.832031 -8.351562 9.285156 -8.875 8.578125 -9.25 C 7.867188 -9.625 7.039062 -9.8125 6.09375 -9.8125 L 2.90625 -9.8125 L 2.90625 -0.984375 Z M 6.09375 -0.984375 "/></g></g></g><g fill="#ffffff" fill-opacity="1"><g transform="translate(342.683261, 281.412002)"><g><path d="M 1.640625 0.078125 C 1.410156 0.078125 1.210938 -0.00390625 1.046875 -0.171875 C 0.890625 -0.335938 0.8125 -0.535156 0.8125 -0.765625 C 0.8125 -1.003906 0.890625 -1.203125 1.046875 -1.359375 C 1.210938 -1.523438 1.410156 -1.609375 1.640625 -1.609375 C 1.859375 -1.609375 2.050781 -1.523438 2.21875 -1.359375 C 2.382812 -1.203125 2.46875 -1.003906 2.46875 -0.765625 C 2.46875 -0.535156 2.382812 -0.335938 2.21875 -0.171875 C 2.050781 -0.00390625 1.859375 0.078125 1.640625 0.078125 Z M 1.640625 0.078125 "/></g></g></g><g fill="#ffffff" fill-opacity="1"><g transform="translate(122.25112, 245.514205)"><g><path d="M 37.167969 -135.507812 L 37.167969 -133.574219 C 45.6875 -133.574219 50.71875 -132.605469 54.398438 -129.507812 L 22.070312 -23.035156 C 16.261719 -5.421875 12.96875 -1.9375 1.9375 -1.9375 L 1.9375 0 L 40.265625 0 L 40.265625 -1.9375 C 27.296875 -1.9375 21.875 -4.066406 21.875 -12.390625 C 21.875 -15.875 22.84375 -20.519531 24.777344 -26.714844 L 31.359375 -47.234375 L 83.046875 -47.234375 L 90.210938 -23.8125 C 91.757812 -18.585938 92.53125 -14.710938 92.53125 -11.613281 C 92.53125 -3.871094 87.304688 -1.9375 74.917969 -1.9375 L 74.917969 0 L 129.3125 0 L 129.3125 -1.9375 C 117.890625 -1.9375 114.601562 -4.453125 110.34375 -18.972656 L 74.917969 -135.507812 Z M 82.273438 -49.558594 L 51.492188 -49.558594 C 41.039062 -49.558594 36.394531 -52.65625 36.394531 -59.816406 C 36.394531 -62.140625 36.972656 -64.851562 37.941406 -68.140625 L 55.945312 -128.152344 C 58.074219 -125.636719 59.816406 -121.957031 61.367188 -116.925781 Z M 82.273438 -49.558594 "/></g></g></g><g fill="#ffffff" fill-opacity="1"><g transform="translate(161.399411, 244.99919)"><g><path d="M 0.953125 0 C 0.835938 0 0.742188 -0.0546875 0.671875 -0.171875 C 0.597656 -0.316406 0.5625 -0.445312 0.5625 -0.5625 L 0.734375 -1.234375 C 2.035156 -5.742188 3.265625 -9.210938 4.421875 -11.640625 C 6.328125 -15.671875 8.0625 -19.007812 9.625 -21.65625 C 10 -22.363281 10.09375 -23.070312 9.90625 -23.78125 C 9.757812 -24.300781 9.238281 -26.816406 8.34375 -31.328125 C 8.039062 -33.085938 7.609375 -35.304688 7.046875 -37.984375 C 6.859375 -38.847656 6.710938 -39.390625 6.609375 -39.609375 C 6.523438 -39.691406 6.484375 -39.84375 6.484375 -40.0625 C 6.484375 -40.132812 6.5625 -40.207031 6.71875 -40.28125 C 6.789062 -40.351562 6.882812 -40.351562 7 -40.28125 C 7.1875 -40.207031 7.332031 -40.039062 7.4375 -39.78125 C 7.738281 -38.851562 7.910156 -38.332031 7.953125 -38.21875 C 8.285156 -36.875 8.863281 -34.28125 9.6875 -30.4375 L 10.859375 -25.34375 C 10.890625 -25.15625 10.984375 -24.875 11.140625 -24.5 C 11.242188 -24.582031 11.332031 -24.671875 11.40625 -24.765625 C 11.488281 -24.859375 11.566406 -24.957031 11.640625 -25.0625 C 11.710938 -25.175781 11.769531 -25.269531 11.8125 -25.34375 C 14.457031 -29.5625 16.691406 -32.84375 18.515625 -35.1875 C 19.003906 -35.820312 20.332031 -37.503906 22.5 -40.234375 C 23.757812 -41.867188 24.46875 -42.816406 24.625 -43.078125 L 25.015625 -43.640625 L 25.40625 -43.8125 C 25.550781 -43.695312 25.550781 -43.53125 25.40625 -43.3125 C 24.882812 -42.414062 24.210938 -41.441406 23.390625 -40.390625 C 20.328125 -36.585938 18.253906 -33.941406 17.171875 -32.453125 C 15.421875 -29.992188 13.613281 -27.253906 11.75 -24.234375 C 11.445312 -23.785156 11.375 -23.257812 11.53125 -22.65625 C 12.644531 -18.925781 13.707031 -15.796875 14.71875 -13.265625 C 14.789062 -13.078125 14.875 -12.878906 14.96875 -12.671875 C 15.0625 -12.460938 15.160156 -12.238281 15.265625 -12 C 15.378906 -11.757812 15.476562 -11.566406 15.5625 -11.421875 C 15.925781 -10.742188 16.441406 -10.21875 17.109375 -9.84375 C 17.785156 -9.46875 18.289062 -9.335938 18.625 -9.453125 C 19.632812 -9.679688 20.71875 -10.222656 21.875 -11.078125 C 23.289062 -12.234375 24.503906 -13.390625 25.515625 -14.546875 C 27.304688 -16.640625 28.21875 -17.703125 28.25 -17.734375 C 28.332031 -17.734375 28.390625 -17.710938 28.421875 -17.671875 C 28.460938 -17.640625 28.484375 -17.566406 28.484375 -17.453125 L 28.09375 -16.953125 C 27.976562 -16.804688 27.648438 -16.414062 27.109375 -15.78125 C 26.566406 -15.144531 26.109375 -14.613281 25.734375 -14.1875 C 25.359375 -13.757812 24.890625 -13.242188 24.328125 -12.640625 C 23.773438 -12.046875 23.21875 -11.523438 22.65625 -11.078125 C 22.101562 -10.628906 21.5625 -10.238281 21.03125 -9.90625 C 20.363281 -9.488281 19.769531 -9.191406 19.25 -9.015625 C 17.457031 -8.410156 15.910156 -9.003906 14.609375 -10.796875 C 14.160156 -11.503906 13.710938 -12.363281 13.265625 -13.375 C 12.441406 -15.351562 11.617188 -17.703125 10.796875 -20.421875 C 10.765625 -20.679688 10.671875 -20.976562 10.515625 -21.3125 C 10.515625 -21.46875 10.457031 -21.546875 10.34375 -21.546875 C 10.238281 -21.578125 10.148438 -21.5 10.078125 -21.3125 C 8.921875 -19.257812 7.742188 -17.039062 6.546875 -14.65625 C 4.984375 -11.601562 3.921875 -9.273438 3.359375 -7.671875 C 2.648438 -5.722656 1.976562 -3.671875 1.34375 -1.515625 C 1.15625 -0.992188 1.097656 -0.546875 1.171875 -0.171875 C 1.171875 -0.0546875 1.097656 0 0.953125 0 Z M 0.953125 0 "/></g></g></g><g fill="#ffffff" fill-opacity="1"><g transform="translate(188.75984, 244.99919)"><g><path d="M 8.28125 -17.84375 C 8.394531 -17.84375 8.410156 -17.773438 8.328125 -17.640625 C 8.253906 -17.515625 8.085938 -17.453125 7.828125 -17.453125 L 4.703125 -17.296875 L 4.203125 -17.296875 C 4.203125 -17.253906 4.191406 -17.175781 4.171875 -17.0625 C 4.148438 -16.945312 4.140625 -16.851562 4.140625 -16.78125 C 3.992188 -16.1875 3.84375 -15.738281 3.6875 -15.4375 C 3.46875 -14.988281 3.191406 -14.597656 2.859375 -14.265625 C 2.066406 -13.671875 1.375 -13.765625 0.78125 -14.546875 C 0.445312 -14.921875 0.28125 -15.5 0.28125 -16.28125 C 0.351562 -17.0625 0.671875 -17.828125 1.234375 -18.578125 C 1.640625 -18.984375 1.972656 -19.113281 2.234375 -18.96875 C 2.304688 -18.925781 2.328125 -18.851562 2.296875 -18.75 C 2.515625 -18.820312 2.703125 -18.859375 2.859375 -18.859375 C 3.492188 -18.859375 3.898438 -18.519531 4.078125 -17.84375 L 4.703125 -17.84375 C 5.265625 -17.882812 6.269531 -17.90625 7.71875 -17.90625 C 7.757812 -17.90625 7.84375 -17.894531 7.96875 -17.875 C 8.101562 -17.851562 8.207031 -17.84375 8.28125 -17.84375 Z M 3.53125 -17.84375 C 3.300781 -18.476562 2.984375 -18.6875 2.578125 -18.46875 C 2.460938 -18.394531 2.40625 -18.300781 2.40625 -18.1875 C 2.40625 -17.957031 2.78125 -17.84375 3.53125 -17.84375 Z M 2.734375 -14.9375 C 3.265625 -15.425781 3.566406 -16.117188 3.640625 -17.015625 L 3.640625 -17.296875 C 2.554688 -17.367188 2.015625 -17.664062 2.015625 -18.1875 L 2.015625 -18.359375 C 1.378906 -17.492188 1.191406 -16.484375 1.453125 -15.328125 C 1.523438 -14.953125 1.691406 -14.726562 1.953125 -14.65625 C 2.210938 -14.582031 2.472656 -14.675781 2.734375 -14.9375 Z M 2.734375 -14.9375 "/></g></g></g><g fill="#ffffff" fill-opacity="1"><g transform="translate(196.033575, 244.99919)"><g><path d="M 3.359375 -11.140625 C 2.578125 -11.210938 2.070312 -11.601562 1.84375 -12.3125 C 1.769531 -12.570312 1.734375 -13.019531 1.734375 -13.65625 C 1.773438 -13.988281 1.832031 -14.367188 1.90625 -14.796875 C 1.976562 -15.222656 2.019531 -15.507812 2.03125 -15.65625 C 2.050781 -15.8125 2.050781 -15.984375 2.03125 -16.171875 C 2.019531 -16.359375 1.976562 -16.5 1.90625 -16.59375 C 1.832031 -16.6875 1.71875 -16.785156 1.5625 -16.890625 C 1.1875 -17.117188 0.851562 -17.398438 0.5625 -17.734375 C -0.144531 -18.628906 -0.0507812 -19.414062 0.84375 -20.09375 C 1.132812 -20.269531 1.421875 -20.289062 1.703125 -20.15625 C 1.984375 -20.03125 2.144531 -19.800781 2.1875 -19.46875 C 2.21875 -19.320312 2.195312 -19.0625 2.125 -18.6875 C 2.125 -18.644531 2.03125 -18.398438 1.84375 -17.953125 C 1.726562 -17.804688 1.75 -17.660156 1.90625 -17.515625 C 2.007812 -17.398438 2.101562 -17.328125 2.1875 -17.296875 C 2.820312 -16.804688 3.117188 -16.09375 3.078125 -15.15625 C 3.078125 -14.976562 3.066406 -14.703125 3.046875 -14.328125 C 3.023438 -13.953125 3.015625 -13.671875 3.015625 -13.484375 C 3.015625 -13.265625 3.054688 -12.96875 3.140625 -12.59375 C 3.242188 -12.175781 3.519531 -11.96875 3.96875 -11.96875 C 4.269531 -12.007812 4.625 -12.125 5.03125 -12.3125 C 5.738281 -12.601562 6.445312 -13.050781 7.15625 -13.65625 C 7.5 -13.914062 8.226562 -14.5 9.34375 -15.40625 C 10.457031 -16.320312 11.1875 -16.910156 11.53125 -17.171875 C 11.820312 -17.398438 12.0625 -17.570312 12.25 -17.6875 C 12.289062 -17.71875 12.328125 -17.722656 12.359375 -17.703125 C 12.398438 -17.691406 12.421875 -17.664062 12.421875 -17.625 C 12.492188 -17.550781 12.515625 -17.492188 12.484375 -17.453125 C 12.367188 -17.265625 12.289062 -17.15625 12.25 -17.125 C 11.769531 -16.707031 10.863281 -15.96875 9.53125 -14.90625 C 8.207031 -13.84375 7.414062 -13.21875 7.15625 -13.03125 C 6.519531 -12.476562 5.703125 -11.957031 4.703125 -11.46875 C 4.328125 -11.25 3.878906 -11.140625 3.359375 -11.140625 Z M 1.125 -18.234375 L 1.34375 -18.359375 C 1.53125 -18.648438 1.625 -18.945312 1.625 -19.25 C 1.625 -19.320312 1.566406 -19.414062 1.453125 -19.53125 C 1.378906 -19.601562 1.269531 -19.601562 1.125 -19.53125 C 0.707031 -19.226562 0.648438 -18.851562 0.953125 -18.40625 Z M 1.125 -18.234375 "/></g></g></g></svg>