<svg xmlns="http://www.w3.org/2000/svg" xmlns:xlink="http://www.w3.org/1999/xlink" width="500" zoomAndPan="magnify" viewBox="0 0 375 374.999991" height="500" preserveAspectRatio="xMidYMid meet" version="1.0"><defs><g/></defs><rect x="-37.5" width="450" fill="#ffffff" y="-37.499999" height="449.999989" fill-opacity="1"/><rect x="-37.5" width="450" fill="#ffffff" y="-37.499999" height="449.999989" fill-opacity="1"/><g fill="#1c4062" fill-opacity="1"><g transform="translate(83.316415, 280.131891)"><g><path d="M 59.347656 -216.367188 L 59.347656 -213.277344 C 72.945312 -213.277344 80.984375 -211.730469 86.855469 -206.785156 L 35.238281 -36.78125 C 25.964844 -8.65625 20.710938 -3.089844 3.089844 -3.089844 L 3.089844 0 L 64.292969 0 L 64.292969 -3.089844 C 43.582031 -3.089844 34.929688 -6.492188 34.929688 -19.78125 C 34.929688 -25.347656 36.472656 -32.765625 39.5625 -42.65625 L 50.074219 -75.417969 L 132.601562 -75.417969 L 144.039062 -38.019531 C 146.511719 -29.671875 147.75 -23.492188 147.75 -18.546875 C 147.75 -6.183594 139.402344 -3.089844 119.621094 -3.089844 L 119.621094 0 L 206.476562 0 L 206.476562 -3.089844 C 188.238281 -3.089844 182.984375 -7.109375 176.183594 -30.292969 L 119.621094 -216.367188 Z M 131.367188 -79.128906 L 82.21875 -79.128906 C 65.527344 -79.128906 58.109375 -84.074219 58.109375 -95.511719 C 58.109375 -99.21875 59.039062 -103.546875 60.582031 -108.800781 L 89.328125 -204.621094 C 92.730469 -200.605469 95.511719 -194.730469 97.984375 -186.695312 Z M 131.367188 -79.128906 "/></g></g></g><g fill="#1c4062" fill-opacity="1"><g transform="translate(145.824916, 279.309572)"><g><path d="M 1.515625 0 C 1.335938 0 1.191406 -0.0859375 1.078125 -0.265625 C 0.953125 -0.503906 0.890625 -0.710938 0.890625 -0.890625 L 1.15625 -1.96875 C 3.238281 -9.175781 5.207031 -14.710938 7.0625 -18.578125 C 10.09375 -25.015625 12.859375 -30.347656 15.359375 -34.578125 C 15.960938 -35.710938 16.113281 -36.84375 15.8125 -37.96875 C 15.570312 -38.800781 14.738281 -42.820312 13.3125 -50.03125 C 12.832031 -52.832031 12.144531 -56.378906 11.25 -60.671875 C 10.957031 -62.035156 10.722656 -62.894531 10.546875 -63.25 C 10.421875 -63.375 10.359375 -63.613281 10.359375 -63.96875 C 10.359375 -64.09375 10.476562 -64.210938 10.71875 -64.328125 C 10.84375 -64.441406 10.992188 -64.441406 11.171875 -64.328125 C 11.460938 -64.210938 11.695312 -63.941406 11.875 -63.515625 C 12.351562 -62.035156 12.625 -61.203125 12.6875 -61.015625 C 13.21875 -58.878906 14.140625 -54.742188 15.453125 -48.609375 L 17.328125 -40.46875 C 17.390625 -40.175781 17.539062 -39.726562 17.78125 -39.125 C 17.957031 -39.25 18.101562 -39.382812 18.21875 -39.53125 C 18.34375 -39.6875 18.460938 -39.851562 18.578125 -40.03125 C 18.703125 -40.207031 18.789062 -40.351562 18.84375 -40.46875 C 23.070312 -47.195312 26.648438 -52.441406 29.578125 -56.203125 C 30.347656 -57.210938 32.460938 -59.890625 35.921875 -64.234375 C 37.941406 -66.859375 39.070312 -68.378906 39.3125 -68.796875 L 39.9375 -69.6875 L 40.5625 -69.953125 C 40.800781 -69.773438 40.800781 -69.507812 40.5625 -69.15625 C 39.726562 -67.726562 38.65625 -66.175781 37.34375 -64.5 C 32.457031 -58.425781 29.148438 -54.195312 27.421875 -51.8125 C 24.628906 -47.882812 21.742188 -43.507812 18.765625 -38.6875 C 18.285156 -37.96875 18.164062 -37.132812 18.40625 -36.1875 C 20.1875 -30.226562 21.882812 -25.222656 23.5 -21.171875 C 23.613281 -20.878906 23.742188 -20.566406 23.890625 -20.234375 C 24.046875 -19.910156 24.210938 -19.550781 24.390625 -19.15625 C 24.566406 -18.769531 24.71875 -18.457031 24.84375 -18.21875 C 25.4375 -17.15625 26.269531 -16.320312 27.34375 -15.71875 C 28.414062 -15.125 29.21875 -14.914062 29.75 -15.09375 C 31.351562 -15.457031 33.082031 -16.320312 34.9375 -17.6875 C 37.195312 -19.53125 39.128906 -21.378906 40.734375 -23.234375 C 43.597656 -26.566406 45.0625 -28.265625 45.125 -28.328125 C 45.238281 -28.328125 45.320312 -28.296875 45.375 -28.234375 C 45.4375 -28.171875 45.46875 -28.050781 45.46875 -27.875 L 44.84375 -27.078125 C 44.664062 -26.835938 44.144531 -26.207031 43.28125 -25.1875 C 42.414062 -24.175781 41.6875 -23.328125 41.09375 -22.640625 C 40.5 -21.960938 39.753906 -21.144531 38.859375 -20.1875 C 37.972656 -19.238281 37.082031 -18.40625 36.1875 -17.6875 C 35.289062 -16.976562 34.425781 -16.351562 33.59375 -15.8125 C 32.519531 -15.15625 31.566406 -14.679688 30.734375 -14.390625 C 27.878906 -13.429688 25.40625 -14.382812 23.3125 -17.25 C 22.601562 -18.375 21.890625 -19.742188 21.171875 -21.359375 C 19.859375 -24.515625 18.550781 -28.265625 17.25 -32.609375 C 17.1875 -33.023438 17.035156 -33.503906 16.796875 -34.046875 C 16.796875 -34.273438 16.707031 -34.390625 16.53125 -34.390625 C 16.351562 -34.453125 16.203125 -34.335938 16.078125 -34.046875 C 14.234375 -30.765625 12.359375 -27.21875 10.453125 -23.40625 C 7.953125 -18.519531 6.253906 -14.796875 5.359375 -12.234375 C 4.222656 -9.140625 3.148438 -5.863281 2.140625 -2.40625 C 1.847656 -1.570312 1.757812 -0.859375 1.875 -0.265625 C 1.875 -0.0859375 1.753906 0 1.515625 0 Z M 1.515625 0 "/></g></g></g><g fill="#1c4062" fill-opacity="1"><g transform="translate(189.511602, 279.309572)"><g><path d="M 13.21875 -28.5 C 13.394531 -28.5 13.425781 -28.394531 13.3125 -28.1875 C 13.195312 -27.976562 12.929688 -27.875 12.515625 -27.875 L 7.5 -27.609375 L 6.703125 -27.609375 C 6.703125 -27.546875 6.6875 -27.425781 6.65625 -27.25 C 6.625 -27.070312 6.609375 -26.921875 6.609375 -26.796875 C 6.367188 -25.847656 6.128906 -25.132812 5.890625 -24.65625 C 5.535156 -23.945312 5.09375 -23.320312 4.5625 -22.78125 C 3.3125 -21.832031 2.207031 -21.984375 1.25 -23.234375 C 0.71875 -23.828125 0.453125 -24.75 0.453125 -26 C 0.566406 -27.25 1.070312 -28.46875 1.96875 -29.65625 C 2.625 -30.3125 3.160156 -30.519531 3.578125 -30.28125 C 3.691406 -30.226562 3.71875 -30.113281 3.65625 -29.9375 C 4.019531 -30.050781 4.320312 -30.109375 4.5625 -30.109375 C 5.570312 -30.109375 6.222656 -29.570312 6.515625 -28.5 L 7.5 -28.5 C 8.394531 -28.5625 10.003906 -28.59375 12.328125 -28.59375 C 12.390625 -28.59375 12.523438 -28.578125 12.734375 -28.546875 C 12.941406 -28.515625 13.101562 -28.5 13.21875 -28.5 Z M 5.625 -28.5 C 5.269531 -29.507812 4.765625 -29.835938 4.109375 -29.484375 C 3.929688 -29.367188 3.84375 -29.21875 3.84375 -29.03125 C 3.84375 -28.675781 4.4375 -28.5 5.625 -28.5 Z M 4.375 -23.859375 C 5.207031 -24.628906 5.6875 -25.726562 5.8125 -27.15625 L 5.8125 -27.609375 C 4.082031 -27.722656 3.21875 -28.195312 3.21875 -29.03125 L 3.21875 -29.3125 C 2.207031 -27.9375 1.910156 -26.328125 2.328125 -24.484375 C 2.441406 -23.890625 2.707031 -23.53125 3.125 -23.40625 C 3.539062 -23.289062 3.957031 -23.441406 4.375 -23.859375 Z M 4.375 -23.859375 "/></g></g></g><g fill="#1c4062" fill-opacity="1"><g transform="translate(201.125651, 279.309572)"><g><path d="M 5.359375 -17.78125 C 4.109375 -17.894531 3.304688 -18.519531 2.953125 -19.65625 C 2.828125 -20.070312 2.765625 -20.785156 2.765625 -21.796875 C 2.828125 -22.335938 2.914062 -22.945312 3.03125 -23.625 C 3.15625 -24.3125 3.234375 -24.773438 3.265625 -25.015625 C 3.296875 -25.253906 3.296875 -25.519531 3.265625 -25.8125 C 3.234375 -26.113281 3.15625 -26.335938 3.03125 -26.484375 C 2.914062 -26.640625 2.738281 -26.804688 2.5 -26.984375 C 1.90625 -27.335938 1.367188 -27.785156 0.890625 -28.328125 C -0.234375 -29.753906 -0.0820312 -31.003906 1.34375 -32.078125 C 1.820312 -32.367188 2.28125 -32.410156 2.71875 -32.203125 C 3.164062 -31.992188 3.421875 -31.625 3.484375 -31.09375 C 3.546875 -30.851562 3.515625 -30.4375 3.390625 -29.84375 C 3.390625 -29.78125 3.242188 -29.390625 2.953125 -28.671875 C 2.773438 -28.441406 2.800781 -28.207031 3.03125 -27.96875 C 3.21875 -27.789062 3.367188 -27.671875 3.484375 -27.609375 C 4.492188 -26.835938 4.96875 -25.707031 4.90625 -24.21875 C 4.90625 -23.914062 4.890625 -23.46875 4.859375 -22.875 C 4.835938 -22.28125 4.828125 -21.832031 4.828125 -21.53125 C 4.828125 -21.175781 4.882812 -20.703125 5 -20.109375 C 5.175781 -19.453125 5.625 -19.125 6.34375 -19.125 C 6.820312 -19.175781 7.390625 -19.351562 8.046875 -19.65625 C 9.171875 -20.132812 10.300781 -20.847656 11.4375 -21.796875 C 11.96875 -22.210938 13.125 -23.148438 14.90625 -24.609375 C 16.695312 -26.066406 17.863281 -27.003906 18.40625 -27.421875 C 18.882812 -27.785156 19.269531 -28.054688 19.5625 -28.234375 C 19.625 -28.296875 19.679688 -28.3125 19.734375 -28.28125 C 19.796875 -28.25 19.828125 -28.203125 19.828125 -28.140625 C 19.953125 -28.023438 19.984375 -27.9375 19.921875 -27.875 C 19.742188 -27.570312 19.625 -27.394531 19.5625 -27.34375 C 18.789062 -26.6875 17.347656 -25.507812 15.234375 -23.8125 C 13.117188 -22.113281 11.851562 -21.113281 11.4375 -20.8125 C 10.425781 -19.925781 9.113281 -19.09375 7.5 -18.3125 C 6.90625 -17.957031 6.191406 -17.78125 5.359375 -17.78125 Z M 1.78125 -29.125 L 1.96875 -29.21875 L 2.140625 -29.3125 C 2.441406 -29.78125 2.59375 -30.253906 2.59375 -30.734375 C 2.59375 -30.847656 2.503906 -31 2.328125 -31.1875 C 2.203125 -31.300781 2.019531 -31.300781 1.78125 -31.1875 C 1.125 -30.707031 1.035156 -30.109375 1.515625 -29.390625 Z M 1.78125 -29.125 "/></g></g></g></svg>